<svg width="414" height="414" viewBox="0 0 414 414" fill="none" xmlns="http://www.w3.org/2000/svg">
<path d="M178.02 302.22L323.955 156.285L294.975 127.305L178.02 244.26L119.025 185.265L90.045 214.245L178.02 302.22ZM207 414C178.365 414 151.455 408.566 126.27 397.699C101.085 386.831 79.1775 372.082 60.5475 353.452C41.9175 334.822 27.1687 312.915 16.3012 287.73C5.43375 262.545 0 235.635 0 207C0 178.365 5.43375 151.455 16.3012 126.27C27.1687 101.085 41.9175 79.1775 60.5475 60.5475C79.1775 41.9175 101.085 27.1687 126.27 16.3012C151.455 5.43375 178.365 0 207 0C235.635 0 262.545 5.43375 287.73 16.3012C312.915 27.1687 334.822 41.9175 353.452 60.5475C372.082 79.1775 386.831 101.085 397.699 126.27C408.566 151.455 414 178.365 414 207C414 235.635 408.566 262.545 397.699 287.73C386.831 312.915 372.082 334.822 353.452 353.452C334.822 372.082 312.915 386.831 287.73 397.699C262.545 408.566 235.635 414 207 414ZM207 372.6C253.23 372.6 292.387 356.557 324.473 324.473C356.557 292.387 372.6 253.23 372.6 207C372.6 160.77 356.557 121.612 324.473 89.5275C292.387 57.4425 253.23 41.4 207 41.4C160.77 41.4 121.612 57.4425 89.5275 89.5275C57.4425 121.612 41.4 160.77 41.4 207C41.4 253.23 57.4425 292.387 89.5275 324.473C121.612 356.557 160.77 372.6 207 372.6Z" fill="#0108F8"/>
</svg>
